#N canvas 408 22 887 783 10;
#X obj 299 185 hsl 64 12 0 1 0 0 empty empty empty -2 -6 0 8 -262144
-1 -1 1096 1;
#X obj 380 184 hsl 64 12 0 1 0 0 empty empty empty -2 -6 0 8 -262144
-1 -1 397 1;
#X obj 460 183 hsl 64 12 0 1 0 0 empty empty empty -2 -6 0 8 -262144
-1 -1 2495 1;
#X obj 217 184 hsl 64 12 0 1 0 0 empty empty empty -2 -6 0 8 -262144
-1 -1 1499 1;
#N canvas 767 37 503 427 alarm 0;
#X obj 104 244 *~;
#X obj 27 244 *~;
#N canvas 697 166 450 300 oddeven 0;
#X obj 58 125 cos~;
#X obj 58 105 +~;
#X obj 74 59 * 0.25;
#X obj 9 33 unpack f f;
#X obj 9 6 inlet pitch tone;
#X obj 58 149 outlet~;
#X obj 9 58 * 1000;
#X obj 59 83 osc~;
#X connect 0 0 5 0;
#X connect 1 0 0 0;
#X connect 2 0 1 1;
#X connect 3 0 6 0;
#X connect 3 1 2 0;
#X connect 4 0 3 0;
#X connect 6 0 7 0;
#X connect 7 0 1 0;
#X restore 192 170 pd oddeven;
#X obj 192 143 pack f f;
#X obj 11 298 *~;
#X obj 11 101 osc~ 0.5;
#X obj 11 123 *~ 10000;
#X obj 11 146 clip~ 0 1;
#X obj 11 169 lop~ 100;
#X obj 83 38 unpack f f f f f f f f;
#X obj 10 374 outlet~;
#X obj 83 12 inlet params;
#X obj 11 78 * 4;
#X obj 10 346 hip~ 50;
#X obj 273 142 pack f f;
#N canvas 0 22 450 300 oddeven 0;
#X obj 58 125 cos~;
#X obj 58 105 +~;
#X obj 74 59 * 0.25;
#X obj 9 33 unpack f f;
#X obj 9 6 inlet pitch tone;
#X obj 58 149 outlet~;
#X obj 9 58 * 1000;
#X obj 59 83 osc~;
#X connect 0 0 5 0;
#X connect 1 0 0 0;
#X connect 2 0 1 1;
#X connect 3 0 6 0;
#X connect 3 1 2 0;
#X connect 4 0 3 0;
#X connect 6 0 7 0;
#X connect 7 0 1 0;
#X restore 273 170 pd oddeven;
#N canvas 219 50 450 300 2phase-osc 0;
#X obj 70 120 clip~ 0 1;
#X obj 147 119 clip~ 1 2;
#X obj 146 142 -~ 1;
#X obj 145 166 *~ 0.5;
#X obj 145 189 -~ 0.25;
#X obj 145 213 cos~;
#X obj 69 169 *~ 0.5;
#X obj 69 192 -~ 0.25;
#X obj 69 216 cos~;
#X obj 68 247 outlet~;
#X obj 146 245 outlet~;
#X obj 111 11 inlet modpitch;
#X obj 111 62 phasor~;
#X obj 111 37 * 24;
#X obj 111 84 *~ 2;
#X connect 0 0 6 0;
#X connect 1 0 2 0;
#X connect 2 0 3 0;
#X connect 3 0 4 0;
#X connect 4 0 5 0;
#X connect 5 0 10 0;
#X connect 6 0 7 0;
#X connect 7 0 8 0;
#X connect 8 0 9 0;
#X connect 11 0 13 0;
#X connect 12 0 14 0;
#X connect 13 0 12 0;
#X connect 14 0 0 0;
#X connect 14 0 1 0;
#X restore 78 169 pd 2phase-osc;
#X obj 10 321 *~ 0.3;
#X connect 0 0 4 1;
#X connect 1 0 4 1;
#X connect 2 0 1 0;
#X connect 3 0 2 0;
#X connect 4 0 17 0;
#X connect 5 0 6 0;
#X connect 6 0 7 0;
#X connect 7 0 8 0;
#X connect 8 0 4 0;
#X connect 9 0 12 0;
#X connect 9 1 16 0;
#X connect 9 2 3 0;
#X connect 9 3 3 1;
#X connect 9 4 14 1;
#X connect 9 5 14 0;
#X connect 11 0 9 0;
#X connect 12 0 5 0;
#X connect 13 0 10 0;
#X connect 14 0 15 0;
#X connect 15 0 0 0;
#X connect 16 0 1 1;
#X connect 16 1 0 1;
#X connect 17 0 13 0;
#X restore 292 608 pd alarm;
#X obj 293 645 dac~;
#X obj 134 245 t;
#X msg 248 336 0 0 0 0 0 0 0;
#X floatatom 241 206 5 0 0 0 - - -;
#X floatatom 319 205 5 0 0 0 - - -;
#X floatatom 476 203 5 0 0 0 - - -;
#X floatatom 394 203 5 0 0 0 - - -;
#X obj 214 80 loadbang;
#X msg 214 156 0.238;
#X msg 296 157 0.174;
#X msg 377 158 0.063;
#X msg 457 158 0.396;
#X obj 214 280 pack f f f f;
#X msg 222 307 set \$1 \$2 \$3 \$4;
#X msg 345 347 0.126984 0.190476 0.730159 0.0793651;
#X msg 348 389 0.126984 0.333333 0.619048 0.126984;
#X msg 344 434 0.174603 0.396825 0.619048 0.587302;
#X msg 345 479 0.492063 0.460317 0.555556 0.52381;
#X msg 344 524 0.52381 0.52381 0 0.52381;
#X msg 351 557 0.793651 0.793651 0.793651 0;
#X obj 286 52 r Channel-A;
#X obj 404 68 r Channel-B;
#X obj 502 85 r Channel-C;
#X obj 584 132 r Channel-D;
#X text 401 644 Simplified for OWL from Andy Farnells 'Designing Sound'
book;
#X connect 0 0 6 0;
#X connect 0 0 9 0;
#X connect 1 0 6 0;
#X connect 1 0 11 0;
#X connect 2 0 6 0;
#X connect 2 0 10 0;
#X connect 3 0 8 0;
#X connect 3 0 17 0;
#X connect 4 0 5 0;
#X connect 4 0 5 1;
#X connect 6 0 17 0;
#X connect 7 0 4 0;
#X connect 9 0 17 1;
#X connect 10 0 17 3;
#X connect 11 0 17 2;
#X connect 12 0 13 0;
#X connect 12 0 14 0;
#X connect 12 0 15 0;
#X connect 12 0 16 0;
#X connect 13 0 3 0;
#X connect 14 0 0 0;
#X connect 15 0 1 0;
#X connect 16 0 2 0;
#X connect 17 0 18 0;
#X connect 17 0 4 0;
#X connect 19 0 4 0;
#X connect 20 0 4 0;
#X connect 21 0 4 0;
#X connect 22 0 4 0;
#X connect 23 0 4 0;
#X connect 24 0 4 0;
#X connect 25 0 17 0;
#X connect 26 0 17 1;
#X connect 27 0 17 2;
#X connect 28 0 17 3;
