#N canvas 418 36 710 747 10;
#X obj -126 633 dac~;
#X obj -125 529 +~;
#X obj -125 551 cos~;
#X obj -158 460 phasor~;
#X obj -94 483 osc~;
#X obj -94 459 *~;
#X obj -94 506 *~;
#X obj -173 492 *~;
#X obj -126 600 *~ 0.06;
#X obj -291 173 vsl 15 128 0 1 0 0 empty empty camp 0 -8 0 8 -260818
-1 -1 0 1;
#X obj -159 150 vsl 15 128 0 1000 0 0 empty empty cf 0 -8 0 8 -241291
-1 -1 0 1;
#X obj -3 188 vsl 15 128 0 32 0 0 empty empty mf 0 -8 0 8 -24198 -1
-1 0 1;
#X obj 72 285 vsl 15 128 0 2 0 0 empty empty mindx 0 -8 0 8 -62784
-1 -1 0 1;
#X obj -291 377 line~;
#X obj -159 397 line~;
#X obj -3 392 line~;
#X obj 72 489 line~;
#X msg -291 337 \$1 1000;
#X msg -159 316 \$1 1000;
#X msg -3 355 \$1 1000;
#X msg 72 452 \$1 1000;
#X obj -291 131 r Channel-A;
#X obj 72 227 r Channel-D;
#X obj -3 127 r Channel-C;
#X obj -159 88 r Channel-B;
#X obj 72 253 * 2;
#X obj -3 152 * 32;
#X obj -159 114 * 1000;
#X text 106 15 http://www.obiwannabe.co.uk/tutorials/html/tutorial_droids.html
;
#X text 101 289 modulation index;
#X text 26 186 modulation frequency;
#X text -135 146 carrier frequency;
#X text -299 13 FM core - simplified version of the FM synthesis section
from Andy Farnells Astromech Droid tutorial on obiwannabe.co.uk;
#X connect 1 0 2 0;
#X connect 2 0 8 0;
#X connect 3 0 7 1;
#X connect 4 0 6 0;
#X connect 5 0 4 0;
#X connect 6 0 1 1;
#X connect 7 0 1 0;
#X connect 8 0 0 0;
#X connect 8 0 0 1;
#X connect 9 0 17 0;
#X connect 10 0 18 0;
#X connect 11 0 19 0;
#X connect 12 0 20 0;
#X connect 13 0 7 0;
#X connect 14 0 3 0;
#X connect 14 0 5 0;
#X connect 15 0 5 1;
#X connect 16 0 6 1;
#X connect 17 0 13 0;
#X connect 18 0 14 0;
#X connect 19 0 15 0;
#X connect 20 0 16 0;
#X connect 21 0 9 0;
#X connect 22 0 25 0;
#X connect 23 0 26 0;
#X connect 24 0 27 0;
#X connect 25 0 12 0;
#X connect 26 0 11 0;
#X connect 27 0 10 0;
