#N canvas 709 78 490 777 10;
#X obj -142 65 loadbang;
#X msg -142 116 1;
#X obj -142 161 f 1;
#X obj -142 186 sel 1 2 3;
#X obj -142 384 moses 30;
#X obj -97 408 moses 60;
#X msg -142 435 1;
#X msg -97 436 2;
#X msg -52 436 3;
#X obj -142 384 moses 30;
#X obj -97 408 moses 60;
#X msg -142 435 1;
#X msg -97 436 2;
#X msg -52 436 3;
#X obj -106 139 metro 120;
#X obj -150 753 dac~;
#X obj -142 473 sel 1 2 3;
#X msg -142 501 1;
#X msg -24 522 1;
#X msg -94 523 1;
#X obj -225 176 vsl 15 50 0 1 0 0 empty empty A 0 -9 0 10 -262130 -1
-1 0 1;
#X obj -225 139 r Channel-A;
#X obj 1 38 vsl 15 50 0 1 0 0 empty empty D 0 -9 0 10 -262130 -1 -1
0 1;
#X obj 0 4 r Channel-D;
#X floatatom -225 281 5 0 0 0 - - -;
#X obj -137 651 *~ 0.8;
#X obj -137 689 *~ 0.3;
#X obj -142 303 random 100;
#X obj -60 199 vsl 15 50 0 1 0 0 empty empty B 0 -9 0 10 -262130 -1
-1 0 1;
#X obj -61 165 r Channel-B;
#X obj -11 253 vsl 15 50 0 1 0 0 empty empty C 0 -9 0 10 -262130 -1
-1 0 1;
#X obj -11 217 r Channel-C;
#X obj -141 356 * 0.5;
#X obj -141 334 +;
#X obj -94 651 *~ 0.3;
#X obj -60 259 * 100;
#X obj -225 237 * 100;
#X obj -11 316 * 0.5;
#X obj -11 339 + 0.5;
#X obj 1 103 * 300;
#X obj 1 122 + 50;
#X obj -44 651 *~ 0.15;
#N canvas 710 139 387 572 kick 0;
#X obj -179 434 *~;
#X obj -179 409 cos~;
#X obj -180 385 *~;
#X obj -180 362 *~;
#X obj -163 218 t f f;
#X obj -179 338 *~;
#X msg -163 194 70;
#X obj -163 244 / 29;
#X msg -70 196 33.9;
#X msg -107 196 30.5;
#X msg -32 196 36.1;
#X obj -111 53 sel 0 1 2;
#X obj -54 85 t b b b;
#X obj -92 112 t b b b;
#X obj -129 142 t b b b;
#X text 25 405 efficient kick drum;
#X text -1 404 ajf;
#X msg -133 279 1 0 \, 0 \$1;
#X obj -133 301 line~;
#X obj -153 26 inlet;
#X obj -186 478 outlet~;
#X text -101 406 simplifed from:;
#X connect 0 0 20 0;
#X connect 1 0 0 0;
#X connect 2 0 1 0;
#X connect 3 0 2 0;
#X connect 4 0 7 0;
#X connect 4 1 17 0;
#X connect 5 0 3 1;
#X connect 5 0 3 0;
#X connect 6 0 4 0;
#X connect 7 0 5 1;
#X connect 8 0 7 1;
#X connect 9 0 7 1;
#X connect 10 0 7 1;
#X connect 11 0 14 0;
#X connect 11 1 13 0;
#X connect 11 2 12 0;
#X connect 12 0 6 0;
#X connect 12 1 10 0;
#X connect 13 0 6 0;
#X connect 13 1 8 0;
#X connect 14 0 6 0;
#X connect 14 1 9 0;
#X connect 17 0 18 0;
#X connect 18 0 0 1;
#X connect 18 0 5 0;
#X connect 18 0 2 1;
#X connect 19 0 11 0;
#X restore -140 580 pd kick;
#N canvas 875 295 586 422 snare 0;
#X obj -5984 510 *~;
#X obj -6016 342 cos~;
#X obj -6000 212 t f f;
#X obj -6016 322 *~;
#X msg -6000 186 70;
#X obj -5966 136 t b b b;
#X obj -5970 353 *~;
#X obj -5984 487 cos~;
#X obj -6031 393 +~;
#X obj -6082 420 *~;
#X obj -5969 378 *~;
#X obj -6082 312 sig~ 5;
#X msg -5944 190 6;
#X obj -6000 238 /;
#X obj -5966 107 sel 1;
#X obj -6046 161 del 5;
#X msg -6046 186 90;
#X msg -5970 273 1 0 \, 0 \$1;
#X obj -5969 295 line~;
#X obj -5966 71 inlet;
#X obj -5986 556 outlet~;
#X msg -6027 90 1;
#X obj -6027 60 loadbang;
#X text -5938 364 kludge snare drum;
#X text -5939 384 - it's not supposed to sound like this!;
#X obj -6169 379 delread~ block 100;
#X obj -5929 546 delwrite~ block 1000;
#X text -5908 493 delwrite and read values affect sound on OWL;
#X text -5901 512 differently to in Pd;
#X text -5934 414 original patch uses send~ and receive~;
#X text -5930 434 objects not available with Heavy compiler;
#X text -5914 451 these introduce delay of one block size;
#X text -5915 469 using delay line here as substitute - not working
as yet!;
#X connect 0 0 20 0;
#X connect 0 0 26 0;
#X connect 1 0 8 1;
#X connect 2 0 13 0;
#X connect 2 1 17 0;
#X connect 3 0 1 0;
#X connect 4 0 2 0;
#X connect 5 0 15 0;
#X connect 5 1 12 0;
#X connect 6 0 10 0;
#X connect 6 0 10 1;
#X connect 7 0 0 0;
#X connect 8 0 9 1;
#X connect 9 0 7 0;
#X connect 10 0 0 1;
#X connect 11 0 8 0;
#X connect 12 0 13 1;
#X connect 13 0 3 1;
#X connect 14 0 5 0;
#X connect 15 0 16 0;
#X connect 15 0 4 0;
#X connect 16 0 2 0;
#X connect 17 0 18 0;
#X connect 18 0 3 0;
#X connect 18 0 6 0;
#X connect 18 0 6 1;
#X connect 19 0 14 0;
#X connect 21 0 14 0;
#X connect 22 0 21 0;
#X connect 25 0 9 0;
#X restore -24 571 pd snare;
#N canvas 873 463 450 300 hihat 0;
#X obj -316 -4672 *~;
#X obj -301 -4840 *~;
#X obj -302 -5046 t b b;
#X obj -302 -4933 pack f f;
#X obj -302 -5000 t f f;
#X msg -302 -5023 1;
#X obj -257 -4960 *;
#X obj -242 -4999 * 600;
#X obj -242 -5072 loadbang;
#X msg -242 -5022 0.1;
#X msg -302 -4910 \$1 0 \, 0 \$2;
#X obj -302 -4886 line~;
#X obj -163 -4845 *~;
#X obj -163 -4746 +~;
#X obj -163 -4722 osc~;
#X obj -192 -4845 +~;
#X obj -140 -4792 *~;
#X obj -111 -4793 *~;
#X obj -96 -4844 sig~ 1;
#X obj -96 -4816 -~;
#X msg -165 -5022 748.031 1023.62 0.173228 1968.5 9259.84;
#X obj -165 -4990 unpack f f f f f;
#X obj -165 -4958 osc~;
#X obj -142 -4932 osc~;
#X obj -134 -4845 *~;
#X obj -163 -4770 sig~;
#X obj -111 -4763 *~;
#X obj -302 -5071 sel 1;
#X obj -309 -5101 inlet;
#X obj -103 -5056 inlet;
#X obj -316 -4645 outlet~;
#X text -223 -4674 simplified from: ajf efficient hihat;
#X connect 0 0 30 0;
#X connect 1 0 0 1;
#X connect 2 0 5 0;
#X connect 3 0 10 0;
#X connect 4 0 3 0;
#X connect 4 1 6 0;
#X connect 5 0 4 0;
#X connect 6 0 3 1;
#X connect 7 0 6 1;
#X connect 8 0 9 0;
#X connect 8 0 20 0;
#X connect 9 0 7 0;
#X connect 10 0 11 0;
#X connect 11 0 1 0;
#X connect 11 0 1 1;
#X connect 11 0 24 0;
#X connect 12 0 17 0;
#X connect 13 0 14 0;
#X connect 14 0 0 0;
#X connect 15 0 16 0;
#X connect 16 0 26 0;
#X connect 17 0 26 0;
#X connect 18 0 19 0;
#X connect 18 0 16 1;
#X connect 19 0 17 1;
#X connect 20 0 21 0;
#X connect 21 0 22 0;
#X connect 21 1 23 0;
#X connect 21 2 24 1;
#X connect 21 3 26 1;
#X connect 21 4 25 0;
#X connect 22 0 12 0;
#X connect 22 0 15 0;
#X connect 23 0 12 1;
#X connect 23 0 15 1;
#X connect 24 0 19 1;
#X connect 25 0 13 0;
#X connect 26 0 13 1;
#X connect 27 0 2 0;
#X connect 28 0 27 0;
#X connect 29 0 20 0;
#X connect 29 0 9 0;
#X restore -93 555 pd hihat;
#X text 19 459 simplified for OWL from;
#X text 31 477 ajf efficient drums;
#X text 35 513 problems with the snare drum;
#X text 42 533 need addressing;
#X text 50 553 see subpatch for details;
#X connect 0 0 1 0;
#X connect 1 0 2 0;
#X connect 1 0 14 0;
#X connect 2 0 3 0;
#X connect 3 0 27 0;
#X connect 3 1 27 0;
#X connect 3 2 27 0;
#X connect 4 0 6 0;
#X connect 4 1 5 0;
#X connect 5 0 7 0;
#X connect 5 1 8 0;
#X connect 6 0 16 0;
#X connect 6 0 2 1;
#X connect 7 0 16 0;
#X connect 7 0 2 1;
#X connect 8 0 16 0;
#X connect 8 0 2 1;
#X connect 9 0 11 0;
#X connect 9 1 10 0;
#X connect 10 0 12 0;
#X connect 10 1 13 0;
#X connect 14 0 2 0;
#X connect 14 0 44 1;
#X connect 16 0 17 0;
#X connect 16 1 19 0;
#X connect 16 2 18 0;
#X connect 17 0 42 0;
#X connect 18 0 43 0;
#X connect 19 0 44 0;
#X connect 20 0 36 0;
#X connect 21 0 20 0;
#X connect 22 0 39 0;
#X connect 23 0 22 0;
#X connect 25 0 26 0;
#X connect 26 0 15 0;
#X connect 26 0 15 1;
#X connect 27 0 33 0;
#X connect 28 0 35 0;
#X connect 29 0 28 0;
#X connect 30 0 37 0;
#X connect 31 0 30 0;
#X connect 32 0 4 0;
#X connect 33 0 32 0;
#X connect 34 0 26 0;
#X connect 35 0 27 1;
#X connect 36 0 33 1;
#X connect 36 0 24 0;
#X connect 37 0 38 0;
#X connect 38 0 32 1;
#X connect 39 0 40 0;
#X connect 40 0 14 1;
#X connect 41 0 26 0;
#X connect 42 0 25 0;
#X connect 43 0 34 0;
#X connect 44 0 41 0;
