#N canvas 442 55 657 583 10;
#X obj 144 417 dac~;
#X obj 191 99 + 0.004;
#X obj 262 60 hsl 128 15 0 1 0 0 empty empty q 12 7 1 8 -262144 -1
-1 7000 1;
#X obj 144 395 hip~ 2000;
#X obj 270 224 + 0.004;
#X obj 345 184 hsl 128 15 0 1 0 0 empty empty t_(time?) 12 7 1 8 -262144
-1 -1 8800 1;
#X obj 272 321 hsl 128 15 0 1 0 0 empty empty amplitude 12 7 1 8 -262144
-1 -1 7400 1;
#X obj 162 6 hsl 128 15 0 1 0 0 empty empty frequency 12 7 1 8 -262144
-1 -1 12000 1;
#X obj 204 339 * 10;
#X obj 117 24 * 30;
#X obj 117 47 + 0.1;
#X obj 144 311 *~;
#X obj 144 334 *~;
#X obj 144 240 clip~ 0 1;
#X obj 69 162 noise~;
#X obj 117 -29 r Channel-A;
#X obj 191 28 r Channel-B;
#X obj 270 157 r Channel-C;
#X obj 204 290 r Channel-D;
#X obj 144 263 max~ 1;
#X obj 144 286 -~ 1;
#X obj 144 356 *~ 1;
#X obj 144 218 bp~ 300 10;
#X floatatom 281 116 5 0 0 0 - - -;
#X obj 191 78 * 0.02;
#X obj 270 204 * 0.5;
#X obj 150 163 f;
#X obj 188 131 t b f;
#X text 252 -49 Simple rain simulator from Andy Farnell's Designing
Sound book: https://mitpress.mit.edu/books/designing-sound;
#X connect 1 0 23 0;
#X connect 1 0 27 0;
#X connect 2 0 24 0;
#X connect 3 0 0 0;
#X connect 3 0 0 1;
#X connect 4 0 19 1;
#X connect 4 0 20 1;
#X connect 5 0 25 0;
#X connect 6 0 8 0;
#X connect 7 0 9 0;
#X connect 8 0 21 1;
#X connect 9 0 10 0;
#X connect 10 0 26 0;
#X connect 11 0 12 0;
#X connect 11 0 12 1;
#X connect 12 0 21 0;
#X connect 13 0 19 0;
#X connect 14 0 22 0;
#X connect 15 0 9 0;
#X connect 16 0 24 0;
#X connect 17 0 25 0;
#X connect 18 0 8 0;
#X connect 19 0 20 0;
#X connect 20 0 11 0;
#X connect 20 0 11 1;
#X connect 21 0 3 0;
#X connect 22 0 13 0;
#X connect 24 0 1 0;
#X connect 25 0 4 0;
#X connect 26 0 22 1;
#X connect 27 0 26 0;
#X connect 27 1 22 2;
